<svg xmlns="http://www.w3.org/2000/svg" xmlns:xlink="http://www.w3.org/1999/xlink" width="500" zoomAndPan="magnify" viewBox="0 0 375 374.999991" height="500" preserveAspectRatio="xMidYMid meet" version="1.0"><defs><g/><clipPath id="id1"><path d="M 37.5 37.5 L 337.5 37.5 L 337.5 337.5 L 37.5 337.5 Z M 37.5 37.5 " clip-rule="nonzero"/></clipPath><clipPath id="id2"><path d="M 187.125 39.703125 L 334.984375 39.703125 L 334.984375 187.496094 L 187.125 187.496094 Z M 187.125 39.703125 " clip-rule="nonzero"/></clipPath><clipPath id="id3"><path d="M 295 37.5 L 302 37.5 L 302 44 L 295 44 Z M 295 37.5 " clip-rule="nonzero"/></clipPath><clipPath id="id4"><path d="M 331.054688 73.363281 L 337.121094 73.363281 L 337.121094 79.5 L 331.054688 79.5 Z M 331.054688 73.363281 " clip-rule="nonzero"/></clipPath><clipPath id="id5"><path d="M 40.015625 187.503906 L 187.875 187.503906 L 187.875 335.296875 L 40.015625 335.296875 Z M 40.015625 187.503906 " clip-rule="nonzero"/></clipPath><clipPath id="id6"><path d="M 73 331 L 80 331 L 80 337.5 L 73 337.5 Z M 73 331 " clip-rule="nonzero"/></clipPath><clipPath id="id7"><path d="M 37.878906 295.5 L 43.945312 295.5 L 43.945312 301.636719 L 37.878906 301.636719 Z M 37.878906 295.5 " clip-rule="nonzero"/></clipPath></defs><g clip-path="url(#id1)"><path fill="rgb(100%, 100%, 100%)" d="M 37.5 37.5 L 37.5 337.5 L 337.5 337.5 L 337.5 37.5 Z M 329.839844 329.839844 L 45.160156 329.839844 L 45.160156 45.160156 L 329.832031 45.160156 L 329.832031 329.839844 Z M 329.839844 329.839844 " fill-opacity="1" fill-rule="nonzero"/></g><g clip-path="url(#id2)"><path fill="rgb(100%, 100%, 100%)" d="M 187.125 39.746094 L 334.871094 39.746094 L 334.871094 187.496094 L 333.269531 187.496094 L 333.269531 41.351562 L 187.125 41.351562 L 187.125 39.746094 " fill-opacity="1" fill-rule="nonzero"/></g><path fill="rgb(100%, 100%, 100%)" d="M 326.941406 50.707031 C 328.589844 50.707031 329.964844 49.378906 329.964844 47.679688 C 329.964844 46.03125 328.589844 44.652344 326.941406 44.652344 C 325.289062 44.652344 323.914062 46.03125 323.914062 47.679688 C 323.914062 49.378906 325.289062 50.707031 326.941406 50.707031 " fill-opacity="1" fill-rule="evenodd"/><path fill="rgb(100%, 100%, 100%)" d="M 324.050781 140.308594 C 324.507812 140.402344 324.785156 140.8125 324.738281 141.226562 C 324.554688 142.417969 323.914062 143.335938 322.996094 143.976562 C 321.667969 144.894531 319.832031 145.125 318.320312 144.480469 C 317.355469 144.070312 316.578125 143.289062 316.070312 142.28125 C 315.613281 141.363281 315.382812 140.265625 315.476562 139.117188 C 315.703125 136.136719 317.90625 134.117188 320.839844 133.386719 C 328.957031 131.414062 335.011719 139.207031 333.359375 146.820312 C 332.351562 151.542969 329.1875 155.074219 324.648438 156.773438 C 320.152344 158.46875 314.742188 158.101562 310.476562 155.902344 C 305.15625 153.101562 301.765625 148.378906 300.433594 142.695312 C 300.433594 142.695312 300.433594 142.695312 300.433594 142.648438 C 299.011719 136.871094 299.746094 130.128906 302.589844 123.617188 C 305.984375 115.730469 311.578125 109.355469 316.988281 103.074219 C 325.378906 93.492188 333.40625 84.226562 332.625 70.699219 C 332.488281 68.039062 331.847656 65.746094 330.792969 63.777344 C 329.324219 60.980469 327.125 58.871094 324.464844 57.539062 C 321.804688 56.164062 318.6875 55.523438 315.566406 55.707031 C 312.90625 55.886719 310.25 56.578125 307.726562 57.90625 C 304.515625 59.558594 302.175781 62.171875 300.527344 65.335938 C 298.691406 68.867188 297.730469 73.175781 297.453125 77.855469 C 297.410156 78.3125 297.042969 78.632812 296.582031 78.632812 C 296.171875 78.585938 295.804688 78.21875 295.847656 77.761719 C 296.125 72.902344 297.132812 68.363281 299.105469 64.601562 C 300.894531 61.117188 303.460938 58.320312 306.992188 56.484375 C 309.699219 55.0625 312.585938 54.285156 315.476562 54.101562 C 318.867188 53.917969 322.261719 54.605469 325.195312 56.074219 C 328.132812 57.585938 330.609375 59.925781 332.210938 63.042969 C 333.359375 65.199219 334.09375 67.71875 334.230469 70.609375 C 335.054688 84.777344 326.800781 94.316406 318.226562 104.128906 C 312.863281 110.320312 307.359375 116.601562 304.058594 124.261719 C 301.351562 130.449219 300.664062 136.824219 301.949219 142.28125 C 301.949219 142.328125 301.996094 142.328125 301.996094 142.328125 C 303.230469 147.554688 306.304688 151.910156 311.210938 154.433594 C 318.179688 158.054688 328.085938 155.304688 330.105469 146.042969 C 331.203125 140.8125 328.589844 135.402344 323.777344 134.898438 C 320.246094 134.578125 318.59375 137.421875 319.511719 140.082031 C 319.878906 141.089844 320.796875 141.59375 321.667969 141.503906 C 323.269531 141.363281 322.90625 140.125 324.050781 140.308594 " fill-opacity="1" fill-rule="nonzero"/><path fill="rgb(100%, 100%, 100%)" d="M 323.410156 149.527344 C 323.820312 149.34375 324.28125 149.570312 324.464844 149.984375 C 324.648438 150.398438 324.417969 150.855469 324.003906 150.992188 C 323.730469 151.132812 323.453125 151.222656 323.132812 151.316406 C 320.289062 152.140625 317.449219 151.542969 315.15625 150.214844 C 312.863281 148.882812 311.074219 146.773438 310.15625 144.480469 C 310.0625 144.253906 309.972656 143.976562 309.925781 143.703125 C 307.3125 134.761719 311.808594 126.09375 316.210938 117.609375 C 319.785156 110.730469 323.269531 103.945312 322.722656 97.433594 C 322.582031 96.011719 322.171875 94.589844 321.527344 93.308594 C 320.609375 91.425781 319.191406 89.777344 317.402344 88.628906 C 313.960938 86.472656 310.019531 86.75 306.488281 88.492188 C 305.890625 88.769531 305.019531 88.8125 304.515625 88.125 C 303.917969 87.347656 304.011719 86.335938 304.515625 85.832031 C 307.632812 82.484375 314.238281 82.117188 318.546875 85.511719 C 322.261719 88.355469 324.234375 92.984375 324.464844 97.527344 C 324.785156 104.496094 321.300781 111.238281 317.628906 118.34375 C 313.367188 126.550781 309.011719 134.945312 311.441406 143.246094 C 311.484375 143.472656 311.578125 143.703125 311.667969 143.933594 C 312.402344 145.859375 313.960938 147.691406 315.980469 148.839844 C 317.90625 149.984375 320.289062 150.445312 322.722656 149.757812 C 322.949219 149.710938 323.179688 149.617188 323.410156 149.527344 " fill-opacity="1" fill-rule="nonzero"/><path fill="rgb(100%, 100%, 100%)" d="M 297.5 78.082031 C 297.363281 78.496094 296.902344 78.726562 296.492188 78.585938 C 296.03125 78.449219 295.804688 78.039062 295.941406 77.578125 C 297.773438 71.984375 301.121094 67.996094 304.882812 65.65625 C 306.808594 64.511719 308.871094 63.730469 310.890625 63.410156 C 312.953125 63.132812 314.972656 63.273438 316.804688 63.867188 C 319.328125 64.691406 321.527344 66.34375 323.085938 68.820312 C 325.378906 72.535156 325.839844 76.984375 324.097656 81.933594 C 322.492188 86.429688 319.144531 91.335938 313.6875 96.609375 C 308.230469 101.835938 304.058594 106.878906 301.121094 112.335938 C 298.234375 117.75 296.8125 123.25 297.132812 130.265625 C 297.179688 131.871094 296.355469 132.375 295.710938 132.421875 C 294.933594 132.46875 293.738281 132.101562 293.464844 129.898438 C 291.90625 117.839844 301.996094 105.640625 312.449219 95.324219 C 317.628906 90.1875 321.070312 85.648438 322.582031 81.429688 C 324.140625 76.9375 323.730469 72.949219 321.710938 69.644531 C 320.382812 67.492188 318.503906 66.070312 316.347656 65.382812 C 314.695312 64.875 312.953125 64.738281 311.121094 65.015625 C 309.332031 65.289062 307.449219 65.976562 305.707031 67.03125 C 302.222656 69.1875 299.152344 72.902344 297.5 78.082031 " fill-opacity="1" fill-rule="nonzero"/><path fill="rgb(100%, 100%, 100%)" d="M 317.585938 106.605469 C 317.8125 106.238281 318.320312 106.148438 318.6875 106.421875 C 319.050781 106.652344 319.144531 107.15625 318.867188 107.523438 C 318.503906 108.027344 317.449219 110.089844 317.628906 112.519531 C 317.722656 113.898438 318.273438 115.363281 319.558594 116.738281 C 320.0625 117.246094 320.472656 117.65625 320.839844 118.023438 C 323.820312 121.003906 325.105469 122.332031 324.1875 125.773438 C 324.097656 126.1875 323.636719 126.460938 323.226562 126.324219 C 322.8125 126.230469 322.539062 125.773438 322.675781 125.359375 C 323.316406 122.792969 322.214844 121.691406 319.738281 119.171875 C 319.328125 118.757812 318.867188 118.296875 318.410156 117.839844 C 316.804688 116.1875 316.164062 114.355469 316.027344 112.660156 C 315.84375 109.769531 317.125 107.246094 317.585938 106.605469 " fill-opacity="1" fill-rule="nonzero"/><path fill="rgb(100%, 100%, 100%)" d="M 325.195312 156.265625 C 326.757812 156.265625 328.636719 157.09375 329.050781 158.195312 C 329.554688 159.523438 328.453125 159.753906 328.820312 160.484375 C 329.414062 161.679688 332.625 160.578125 332.257812 157.136719 C 332.03125 154.984375 330.425781 153.746094 328.589844 153.46875 C 327.628906 154.339844 326.160156 155.394531 325.195312 156.265625 " fill-opacity="1" fill-rule="evenodd"/><path fill="rgb(100%, 100%, 100%)" d="M 304.882812 136.59375 C 304.976562 136.183594 305.386719 135.863281 305.800781 135.953125 C 306.257812 136.046875 306.535156 136.457031 306.488281 136.871094 C 305.617188 141.777344 306.074219 145.902344 307.816406 149.433594 C 309.605469 152.917969 312.722656 155.855469 317.082031 158.375 C 320.105469 160.121094 323.226562 162.183594 325.65625 164.703125 C 328.132812 167.273438 329.828125 170.34375 329.875 173.921875 C 329.875 175.757812 329.234375 177.359375 328.132812 178.554688 C 326.023438 180.847656 322.171875 181.257812 319.832031 179.058594 C 318.730469 178.003906 318.042969 176.398438 318.273438 174.65625 C 318.59375 172.410156 320.382812 171.125 322.171875 171.765625 C 323.683594 172.316406 324.28125 174.378906 323.363281 175.757812 C 322.628906 176.8125 321.253906 177.316406 320.246094 176.949219 C 320.382812 177.316406 320.65625 177.636719 320.933594 177.910156 C 322.628906 179.46875 325.472656 179.105469 326.984375 177.5 C 327.8125 176.582031 328.269531 175.34375 328.269531 173.921875 C 328.222656 170.804688 326.710938 168.144531 324.507812 165.804688 C 322.214844 163.421875 319.191406 161.449219 316.300781 159.796875 C 311.625 157.09375 308.324219 153.976562 306.394531 150.121094 C 304.46875 146.316406 303.964844 141.867188 304.882812 136.59375 " fill-opacity="1" fill-rule="nonzero"/><path fill="rgb(100%, 100%, 100%)" d="M 234.3125 50.570312 C 234.21875 50.109375 233.804688 49.835938 233.394531 49.882812 C 232.203125 50.066406 231.285156 50.707031 230.640625 51.625 C 229.726562 52.953125 229.496094 54.789062 230.136719 56.300781 C 230.550781 57.265625 231.332031 58.042969 232.339844 58.546875 C 233.257812 59.007812 234.355469 59.234375 235.503906 59.144531 C 238.484375 58.914062 240.5 56.714844 241.234375 53.777344 C 243.207031 45.664062 235.410156 39.609375 227.800781 41.261719 C 223.074219 42.269531 219.546875 45.433594 217.847656 49.972656 C 216.152344 54.46875 216.519531 59.878906 218.71875 64.144531 C 221.515625 69.460938 226.238281 72.855469 231.925781 74.1875 C 231.925781 74.1875 231.925781 74.1875 231.972656 74.1875 C 237.75 75.605469 244.492188 74.875 251.003906 72.03125 C 258.890625 68.636719 265.265625 63.042969 271.546875 57.632812 C 281.128906 49.285156 290.390625 41.214844 303.917969 41.996094 C 306.578125 42.132812 308.871094 42.773438 310.84375 43.828125 C 313.640625 45.296875 315.75 47.496094 317.125 50.15625 C 318.457031 52.816406 319.097656 55.933594 318.914062 59.054688 C 318.730469 61.710938 318.042969 64.371094 316.714844 66.894531 C 315.0625 70.105469 312.449219 72.441406 309.285156 74.09375 C 305.753906 75.929688 301.445312 76.890625 296.765625 77.167969 C 296.308594 77.210938 295.988281 77.578125 295.988281 78.039062 C 296.03125 78.449219 296.398438 78.816406 296.859375 78.769531 C 301.71875 78.496094 306.257812 77.488281 310.019531 75.515625 C 313.503906 73.726562 316.300781 71.160156 318.136719 67.628906 C 319.558594 64.921875 320.335938 62.035156 320.519531 59.144531 C 320.703125 55.75 320.015625 52.359375 318.546875 49.421875 C 317.035156 46.488281 314.695312 44.011719 311.578125 42.40625 C 309.421875 41.261719 306.902344 40.527344 304.011719 40.390625 C 289.84375 39.5625 280.304688 47.820312 270.492188 56.394531 C 264.300781 61.757812 258.019531 67.261719 250.359375 70.5625 C 244.167969 73.269531 237.796875 73.957031 232.339844 72.671875 C 232.292969 72.671875 232.292969 72.625 232.292969 72.625 C 227.066406 71.386719 222.707031 68.316406 220.1875 63.410156 C 216.5625 56.4375 219.316406 46.535156 228.578125 44.515625 C 233.804688 43.414062 239.21875 46.03125 239.722656 50.84375 C 240.042969 54.375 237.199219 56.027344 234.539062 55.109375 C 233.53125 54.742188 233.027344 53.824219 233.117188 52.953125 C 233.257812 51.347656 234.492188 51.714844 234.3125 50.570312 " fill-opacity="1" fill-rule="nonzero"/><path fill="rgb(100%, 100%, 100%)" d="M 225.09375 51.210938 C 225.277344 50.800781 225.046875 50.339844 224.636719 50.15625 C 224.222656 49.972656 223.765625 50.203125 223.625 50.617188 C 223.488281 50.890625 223.398438 51.164062 223.304688 51.488281 C 222.480469 54.328125 223.074219 57.171875 224.40625 59.464844 C 225.734375 61.757812 227.84375 63.546875 230.136719 64.464844 C 230.367188 64.554688 230.640625 64.648438 230.917969 64.691406 C 239.859375 67.308594 248.527344 62.8125 257.007812 58.410156 C 263.886719 54.835938 270.675781 51.347656 277.1875 51.898438 C 278.609375 52.035156 280.027344 52.449219 281.3125 53.089844 C 283.191406 54.007812 284.84375 55.429688 285.992188 57.21875 C 288.144531 60.65625 287.871094 64.601562 286.128906 68.132812 C 285.851562 68.730469 285.808594 69.597656 286.496094 70.105469 C 287.273438 70.699219 288.285156 70.609375 288.789062 70.105469 C 292.136719 66.984375 292.5 60.382812 289.109375 56.074219 C 286.265625 52.359375 281.632812 50.386719 277.09375 50.15625 C 270.125 49.835938 263.382812 53.320312 256.277344 56.988281 C 248.066406 61.253906 239.675781 65.609375 231.375 63.179688 C 231.148438 63.132812 230.917969 63.042969 230.6875 62.949219 C 228.761719 62.214844 226.925781 60.65625 225.78125 58.640625 C 224.636719 56.714844 224.175781 54.328125 224.863281 51.898438 C 224.910156 51.671875 225.003906 51.441406 225.09375 51.210938 " fill-opacity="1" fill-rule="nonzero"/><path fill="rgb(100%, 100%, 100%)" d="M 296.539062 77.121094 C 296.125 77.257812 295.894531 77.714844 296.03125 78.128906 C 296.171875 78.585938 296.582031 78.816406 297.042969 78.679688 C 302.636719 76.84375 306.625 73.542969 308.964844 69.738281 C 310.109375 67.8125 310.890625 65.746094 311.210938 63.730469 C 311.484375 61.667969 311.347656 59.648438 310.753906 57.816406 C 309.925781 55.292969 308.277344 53.089844 305.800781 51.53125 C 302.085938 49.238281 297.636719 48.78125 292.683594 50.523438 C 288.191406 52.128906 283.285156 55.476562 278.011719 60.933594 C 272.785156 66.390625 267.738281 70.5625 262.28125 73.496094 C 256.871094 76.386719 251.371094 77.808594 244.351562 77.488281 C 242.746094 77.441406 242.242188 78.265625 242.199219 78.910156 C 242.199219 79.6875 242.519531 80.878906 244.71875 81.15625 C 256.78125 82.714844 268.976562 72.625 279.296875 62.171875 C 284.429688 56.988281 288.972656 53.550781 293.191406 52.035156 C 297.683594 50.476562 301.671875 50.890625 304.976562 52.90625 C 307.128906 54.238281 308.550781 56.117188 309.238281 58.273438 C 309.742188 59.925781 309.882812 61.667969 309.605469 63.5 C 309.332031 65.289062 308.644531 67.167969 307.589844 68.910156 C 305.433594 72.398438 301.71875 75.46875 296.539062 77.121094 " fill-opacity="1" fill-rule="nonzero"/><path fill="rgb(100%, 100%, 100%)" d="M 268.015625 57.035156 C 268.382812 56.804688 268.472656 56.300781 268.199219 55.933594 C 267.96875 55.566406 267.464844 55.476562 267.097656 55.75 C 266.59375 56.117188 264.53125 57.171875 262.097656 56.988281 C 260.722656 56.898438 259.257812 56.347656 257.878906 55.0625 C 257.375 54.558594 256.964844 54.144531 256.597656 53.777344 C 253.617188 50.800781 252.285156 49.515625 248.847656 50.433594 C 248.433594 50.523438 248.160156 50.980469 248.296875 51.394531 C 248.386719 51.808594 248.847656 52.082031 249.261719 51.945312 C 251.828125 51.304688 252.929688 52.402344 255.449219 54.878906 C 255.863281 55.292969 256.320312 55.75 256.78125 56.210938 C 258.429688 57.816406 260.265625 58.457031 261.960938 58.59375 C 264.851562 58.777344 267.371094 57.492188 268.015625 57.035156 " fill-opacity="1" fill-rule="nonzero"/><path fill="rgb(100%, 100%, 100%)" d="M 218.351562 49.421875 C 218.351562 47.863281 217.527344 45.984375 216.425781 45.570312 C 215.097656 45.066406 214.867188 46.167969 214.132812 45.800781 C 212.941406 45.203125 214.042969 41.996094 217.480469 42.363281 C 219.636719 42.589844 220.875 44.195312 221.148438 46.03125 C 220.277344 46.992188 219.222656 48.460938 218.351562 49.421875 " fill-opacity="1" fill-rule="evenodd"/><path fill="rgb(100%, 100%, 100%)" d="M 238.023438 69.738281 C 238.4375 69.644531 238.757812 69.234375 238.667969 68.820312 C 238.574219 68.363281 238.164062 68.085938 237.75 68.132812 C 232.84375 69.003906 228.714844 68.546875 225.183594 66.800781 C 221.699219 65.015625 218.765625 61.894531 216.242188 57.539062 C 214.5 54.511719 212.4375 51.394531 209.914062 48.964844 C 207.347656 46.488281 204.273438 44.792969 200.699219 44.746094 C 198.863281 44.746094 197.257812 45.386719 196.066406 46.488281 C 193.773438 48.597656 193.363281 52.449219 195.5625 54.789062 C 196.617188 55.886719 198.222656 56.578125 199.964844 56.347656 C 202.210938 56.027344 203.496094 54.238281 202.855469 52.449219 C 202.304688 50.9375 200.238281 50.339844 198.863281 51.257812 C 197.808594 51.992188 197.304688 53.367188 197.671875 54.375 C 197.304688 54.238281 196.984375 53.964844 196.710938 53.6875 C 195.148438 51.992188 195.515625 49.148438 197.121094 47.632812 C 198.039062 46.808594 199.277344 46.351562 200.699219 46.351562 C 203.816406 46.398438 206.476562 47.910156 208.816406 50.109375 C 211.199219 52.402344 213.171875 55.429688 214.820312 58.320312 C 217.527344 62.996094 220.644531 66.296875 224.496094 68.222656 C 228.304688 70.148438 232.75 70.65625 238.023438 69.738281 " fill-opacity="1" fill-rule="nonzero"/><g clip-path="url(#id3)"><path fill="rgb(100%, 100%, 100%)" d="M 295.160156 40.527344 C 295.160156 42.222656 296.492188 43.554688 298.140625 43.554688 C 299.839844 43.554688 301.167969 42.222656 301.167969 40.527344 C 301.167969 38.875 299.839844 37.5 298.140625 37.5 C 296.492188 37.5 295.160156 38.875 295.160156 40.527344 " fill-opacity="1" fill-rule="evenodd"/></g><g clip-path="url(#id4)"><path fill="rgb(100%, 100%, 100%)" d="M 334.09375 79.457031 C 335.742188 79.457031 337.121094 78.128906 337.121094 76.476562 C 337.121094 74.78125 335.742188 73.453125 334.09375 73.453125 C 332.394531 73.453125 331.066406 74.78125 331.066406 76.476562 C 331.066406 78.128906 332.394531 79.457031 334.09375 79.457031 " fill-opacity="1" fill-rule="evenodd"/></g><g fill="rgb(0%, 0%, 0%)" fill-opacity="1"><g transform="translate(187.499992, 195.374987)"><g/></g></g><g clip-path="url(#id5)"><path fill="rgb(100%, 100%, 100%)" d="M 187.875 335.253906 L 40.128906 335.253906 L 40.128906 187.503906 L 41.730469 187.503906 L 41.730469 333.648438 L 187.875 333.648438 L 187.875 335.253906 " fill-opacity="1" fill-rule="nonzero"/></g><path fill="rgb(100%, 100%, 100%)" d="M 48.058594 324.292969 C 46.410156 324.292969 45.035156 325.621094 45.035156 327.320312 C 45.035156 328.96875 46.410156 330.347656 48.058594 330.347656 C 49.710938 330.347656 51.085938 328.96875 51.085938 327.320312 C 51.085938 325.621094 49.710938 324.292969 48.058594 324.292969 " fill-opacity="1" fill-rule="evenodd"/><path fill="rgb(100%, 100%, 100%)" d="M 50.949219 234.691406 C 50.492188 234.597656 50.214844 234.1875 50.261719 233.773438 C 50.445312 232.582031 51.085938 231.664062 52.003906 231.023438 C 53.332031 230.105469 55.167969 229.875 56.679688 230.519531 C 57.644531 230.929688 58.421875 231.710938 58.929688 232.71875 C 59.386719 233.636719 59.617188 234.734375 59.523438 235.882812 C 59.296875 238.863281 57.09375 240.882812 54.160156 241.613281 C 46.042969 243.585938 39.988281 235.792969 41.640625 228.179688 C 42.648438 223.457031 45.8125 219.925781 50.351562 218.226562 C 54.847656 216.53125 60.257812 216.898438 64.523438 219.097656 C 69.84375 221.898438 73.234375 226.621094 74.566406 232.304688 C 74.566406 232.304688 74.566406 232.304688 74.566406 232.351562 C 75.988281 238.128906 75.253906 244.871094 72.410156 251.382812 C 69.015625 259.269531 63.421875 265.644531 58.011719 271.925781 C 49.621094 281.507812 41.59375 290.773438 42.375 304.300781 C 42.511719 306.960938 43.152344 309.253906 44.207031 311.222656 C 45.675781 314.019531 47.875 316.128906 50.535156 317.460938 C 53.195312 318.835938 56.3125 319.476562 59.433594 319.292969 C 62.09375 319.113281 64.75 318.421875 67.273438 317.09375 C 70.484375 315.441406 72.824219 312.828125 74.472656 309.664062 C 76.308594 306.132812 77.269531 301.824219 77.546875 297.144531 C 77.589844 296.6875 77.957031 296.367188 78.417969 296.367188 C 78.828125 296.414062 79.195312 296.777344 79.152344 297.238281 C 78.875 302.097656 77.867188 306.636719 75.894531 310.398438 C 74.105469 313.882812 71.539062 316.679688 68.007812 318.515625 C 65.300781 319.9375 62.414062 320.714844 59.523438 320.898438 C 56.132812 321.082031 52.738281 320.394531 49.804688 318.925781 C 46.867188 317.414062 44.390625 315.074219 42.789062 311.957031 C 41.640625 309.800781 40.90625 307.28125 40.769531 304.390625 C 39.945312 290.222656 48.199219 280.683594 56.773438 270.871094 C 62.136719 264.679688 67.640625 258.398438 70.941406 250.738281 C 73.648438 244.550781 74.335938 238.175781 73.050781 232.71875 C 73.050781 232.671875 73.003906 232.671875 73.003906 232.671875 C 71.769531 227.445312 68.695312 223.089844 63.789062 220.566406 C 56.820312 216.945312 46.914062 219.695312 44.894531 228.957031 C 43.796875 234.1875 46.410156 239.597656 51.222656 240.101562 C 54.753906 240.421875 56.40625 237.578125 55.488281 234.917969 C 55.121094 233.910156 54.203125 233.40625 53.332031 233.496094 C 51.730469 233.636719 52.09375 234.875 50.949219 234.691406 " fill-opacity="1" fill-rule="nonzero"/><path fill="rgb(100%, 100%, 100%)" d="M 51.589844 225.472656 C 51.179688 225.65625 50.71875 225.429688 50.535156 225.015625 C 50.351562 224.601562 50.582031 224.144531 50.996094 224.007812 C 51.269531 223.867188 51.546875 223.777344 51.867188 223.683594 C 54.710938 222.859375 57.550781 223.457031 59.84375 224.785156 C 62.136719 226.117188 63.925781 228.226562 64.84375 230.519531 C 64.9375 230.746094 65.027344 231.023438 65.074219 231.296875 C 67.6875 240.238281 63.191406 248.90625 58.789062 257.390625 C 55.214844 264.269531 51.730469 271.054688 52.277344 277.566406 C 52.417969 278.988281 52.828125 280.410156 53.472656 281.691406 C 54.386719 283.574219 55.808594 285.222656 57.597656 286.371094 C 61.039062 288.527344 64.980469 288.25 68.511719 286.507812 C 69.109375 286.230469 69.980469 286.1875 70.484375 286.875 C 71.082031 287.652344 70.988281 288.664062 70.484375 289.167969 C 67.367188 292.515625 60.761719 292.882812 56.453125 289.488281 C 52.738281 286.644531 50.765625 282.015625 50.535156 277.472656 C 50.214844 270.503906 53.699219 263.761719 57.371094 256.65625 C 61.632812 248.449219 65.988281 240.054688 63.558594 231.753906 C 63.515625 231.527344 63.421875 231.296875 63.332031 231.066406 C 62.597656 229.140625 61.039062 227.308594 59.019531 226.160156 C 57.09375 225.015625 54.710938 224.554688 52.277344 225.242188 C 52.050781 225.289062 51.820312 225.382812 51.589844 225.472656 " fill-opacity="1" fill-rule="nonzero"/><path fill="rgb(100%, 100%, 100%)" d="M 77.5 296.917969 C 77.636719 296.503906 78.097656 296.273438 78.507812 296.414062 C 78.96875 296.550781 79.195312 296.960938 79.058594 297.421875 C 77.226562 303.015625 73.878906 307.003906 70.117188 309.34375 C 68.191406 310.488281 66.128906 311.269531 64.109375 311.589844 C 62.046875 311.867188 60.027344 311.726562 58.195312 311.132812 C 55.671875 310.308594 53.472656 308.65625 51.914062 306.179688 C 49.621094 302.464844 49.160156 298.015625 50.902344 293.066406 C 52.507812 288.570312 55.855469 283.664062 61.3125 278.390625 C 66.769531 273.164062 70.941406 268.121094 73.878906 262.664062 C 76.765625 257.25 78.1875 251.75 77.867188 244.734375 C 77.820312 243.128906 78.644531 242.625 79.289062 242.578125 C 80.066406 242.53125 81.261719 242.898438 81.535156 245.101562 C 83.09375 257.160156 73.003906 269.359375 62.550781 279.675781 C 57.371094 284.8125 53.929688 289.351562 52.417969 293.570312 C 50.859375 298.0625 51.269531 302.050781 53.289062 305.355469 C 54.617188 307.507812 56.496094 308.929688 58.652344 309.617188 C 60.304688 310.125 62.046875 310.261719 63.878906 309.984375 C 65.667969 309.710938 67.550781 309.023438 69.292969 307.96875 C 72.777344 305.8125 75.847656 302.097656 77.5 296.917969 " fill-opacity="1" fill-rule="nonzero"/><path fill="rgb(100%, 100%, 100%)" d="M 57.414062 268.394531 C 57.1875 268.761719 56.679688 268.851562 56.3125 268.578125 C 55.949219 268.347656 55.855469 267.84375 56.132812 267.476562 C 56.496094 266.972656 57.550781 264.910156 57.371094 262.480469 C 57.277344 261.101562 56.726562 259.636719 55.441406 258.261719 C 54.9375 257.753906 54.527344 257.34375 54.160156 256.976562 C 51.179688 253.996094 49.894531 252.667969 50.8125 249.226562 C 50.902344 248.8125 51.363281 248.539062 51.773438 248.675781 C 52.1875 248.769531 52.460938 249.226562 52.324219 249.640625 C 51.683594 252.207031 52.785156 253.308594 55.261719 255.828125 C 55.671875 256.242188 56.132812 256.703125 56.589844 257.160156 C 58.195312 258.8125 58.835938 260.644531 58.972656 262.339844 C 59.15625 265.230469 57.875 267.753906 57.414062 268.394531 " fill-opacity="1" fill-rule="nonzero"/><path fill="rgb(100%, 100%, 100%)" d="M 49.804688 218.734375 C 48.242188 218.734375 46.363281 217.90625 45.949219 216.804688 C 45.445312 215.476562 46.546875 215.246094 46.179688 214.515625 C 45.585938 213.320312 42.375 214.421875 42.742188 217.863281 C 42.96875 220.015625 44.574219 221.253906 46.410156 221.53125 C 47.371094 220.660156 48.839844 219.605469 49.804688 218.734375 " fill-opacity="1" fill-rule="evenodd"/><path fill="rgb(100%, 100%, 100%)" d="M 70.117188 238.40625 C 70.023438 238.816406 69.613281 239.136719 69.199219 239.046875 C 68.742188 238.953125 68.464844 238.542969 68.511719 238.128906 C 69.382812 233.222656 68.925781 229.097656 67.183594 225.566406 C 65.394531 222.082031 62.277344 219.144531 57.917969 216.625 C 54.894531 214.878906 51.773438 212.816406 49.34375 210.296875 C 46.867188 207.726562 45.171875 204.65625 45.125 201.078125 C 45.125 199.242188 45.765625 197.640625 46.867188 196.445312 C 48.976562 194.152344 52.828125 193.742188 55.167969 195.941406 C 56.269531 196.996094 56.957031 198.601562 56.726562 200.34375 C 56.40625 202.589844 54.617188 203.875 52.828125 203.234375 C 51.316406 202.683594 50.71875 200.621094 51.636719 199.242188 C 52.371094 198.1875 53.746094 197.683594 54.753906 198.050781 C 54.617188 197.683594 54.34375 197.363281 54.066406 197.089844 C 52.371094 195.53125 49.527344 195.894531 48.015625 197.5 C 47.1875 198.417969 46.730469 199.65625 46.730469 201.078125 C 46.777344 204.195312 48.289062 206.855469 50.492188 209.195312 C 52.785156 211.578125 55.808594 213.550781 58.699219 215.203125 C 63.375 217.90625 66.675781 221.023438 68.605469 224.878906 C 70.53125 228.683594 71.035156 233.132812 70.117188 238.40625 " fill-opacity="1" fill-rule="nonzero"/><path fill="rgb(100%, 100%, 100%)" d="M 140.6875 324.429688 C 140.78125 324.890625 141.195312 325.164062 141.605469 325.117188 C 142.796875 324.933594 143.714844 324.292969 144.359375 323.375 C 145.273438 322.046875 145.503906 320.210938 144.863281 318.699219 C 144.449219 317.734375 143.667969 316.957031 142.660156 316.453125 C 141.742188 315.992188 140.644531 315.765625 139.496094 315.855469 C 136.515625 316.085938 134.5 318.285156 133.765625 321.222656 C 131.792969 329.335938 139.589844 335.390625 147.199219 333.738281 C 151.925781 332.730469 155.453125 329.566406 157.152344 325.027344 C 158.847656 320.53125 158.480469 315.121094 156.28125 310.855469 C 153.484375 305.539062 148.761719 302.144531 143.074219 300.8125 C 143.074219 300.8125 143.074219 300.8125 143.027344 300.8125 C 137.25 299.394531 130.507812 300.125 123.996094 302.96875 C 116.109375 306.363281 109.734375 311.957031 103.453125 317.367188 C 93.871094 325.714844 84.609375 333.785156 71.082031 333.003906 C 68.421875 332.867188 66.128906 332.226562 64.15625 331.171875 C 61.359375 329.703125 59.25 327.503906 57.875 324.84375 C 56.542969 322.183594 55.902344 319.066406 56.085938 315.945312 C 56.269531 313.289062 56.957031 310.628906 58.285156 308.105469 C 59.9375 304.894531 62.550781 302.558594 65.714844 300.90625 C 69.246094 299.070312 73.554688 298.109375 78.234375 297.832031 C 78.691406 297.789062 79.011719 297.421875 79.011719 296.960938 C 78.96875 296.550781 78.601562 296.183594 78.140625 296.230469 C 73.28125 296.503906 68.742188 297.511719 64.980469 299.484375 C 61.496094 301.273438 58.699219 303.839844 56.863281 307.371094 C 55.441406 310.078125 54.664062 312.964844 54.480469 315.855469 C 54.296875 319.25 54.984375 322.640625 56.453125 325.578125 C 57.964844 328.511719 60.304688 330.988281 63.421875 332.59375 C 65.578125 333.738281 68.097656 334.472656 70.988281 334.609375 C 85.15625 335.4375 94.695312 327.179688 104.507812 318.605469 C 110.699219 313.242188 116.980469 307.738281 124.640625 304.4375 C 130.832031 301.730469 137.203125 301.042969 142.660156 302.328125 C 142.707031 302.328125 142.707031 302.375 142.707031 302.375 C 147.933594 303.613281 152.292969 306.683594 154.8125 311.589844 C 158.4375 318.5625 155.683594 328.464844 146.421875 330.484375 C 141.195312 331.585938 135.78125 328.96875 135.277344 324.15625 C 134.957031 320.625 137.800781 318.972656 140.460938 319.890625 C 141.46875 320.257812 141.972656 321.175781 141.882812 322.046875 C 141.742188 323.652344 140.507812 323.285156 140.6875 324.429688 " fill-opacity="1" fill-rule="nonzero"/><path fill="rgb(100%, 100%, 100%)" d="M 149.90625 323.789062 C 149.722656 324.199219 149.953125 324.660156 150.363281 324.84375 C 150.777344 325.027344 151.234375 324.796875 151.375 324.382812 C 151.511719 324.109375 151.601562 323.835938 151.695312 323.511719 C 152.519531 320.671875 151.925781 317.828125 150.59375 315.535156 C 149.265625 313.242188 147.15625 311.453125 144.863281 310.535156 C 144.632812 310.445312 144.359375 310.351562 144.082031 310.308594 C 135.140625 307.691406 126.472656 312.1875 117.992188 316.589844 C 111.113281 320.164062 104.324219 323.652344 97.8125 323.101562 C 96.390625 322.964844 94.972656 322.550781 93.6875 321.910156 C 91.808594 320.992188 90.15625 319.570312 89.007812 317.78125 C 86.855469 314.34375 87.128906 310.398438 88.871094 306.867188 C 89.148438 306.269531 89.191406 305.402344 88.503906 304.894531 C 87.726562 304.300781 86.714844 304.390625 86.210938 304.894531 C 82.863281 308.015625 82.5 314.617188 85.890625 318.925781 C 88.734375 322.640625 93.367188 324.613281 97.90625 324.84375 C 104.875 325.164062 111.617188 321.679688 118.722656 318.011719 C 126.933594 313.746094 135.324219 309.390625 143.625 311.820312 C 143.851562 311.867188 144.082031 311.957031 144.3125 312.050781 C 146.238281 312.78125 148.074219 314.34375 149.21875 316.359375 C 150.363281 318.285156 150.824219 320.671875 150.136719 323.101562 C 150.089844 323.328125 149.996094 323.558594 149.90625 323.789062 " fill-opacity="1" fill-rule="nonzero"/><path fill="rgb(100%, 100%, 100%)" d="M 78.460938 297.878906 C 78.875 297.742188 79.105469 297.285156 78.96875 296.871094 C 78.828125 296.414062 78.417969 296.183594 77.957031 296.320312 C 72.363281 298.15625 68.375 301.457031 66.035156 305.261719 C 64.890625 307.1875 64.109375 309.253906 63.789062 311.269531 C 63.515625 313.332031 63.652344 315.351562 64.246094 317.183594 C 65.074219 319.707031 66.722656 321.910156 69.199219 323.46875 C 72.914062 325.761719 77.363281 326.21875 82.316406 324.476562 C 86.808594 322.871094 91.714844 319.523438 96.988281 314.066406 C 102.214844 308.609375 107.261719 304.4375 112.71875 301.503906 C 118.128906 298.613281 123.628906 297.191406 130.648438 297.511719 C 132.253906 297.558594 132.757812 296.734375 132.800781 296.089844 C 132.800781 295.3125 132.480469 294.121094 130.28125 293.84375 C 118.21875 292.285156 106.023438 302.375 95.703125 312.828125 C 90.570312 318.011719 86.027344 321.449219 81.808594 322.964844 C 77.316406 324.523438 73.328125 324.109375 70.023438 322.09375 C 67.871094 320.761719 66.449219 318.882812 65.761719 316.726562 C 65.257812 315.074219 65.117188 313.332031 65.394531 311.5 C 65.667969 309.710938 66.355469 307.832031 67.410156 306.089844 C 69.566406 302.601562 73.28125 299.53125 78.460938 297.878906 " fill-opacity="1" fill-rule="nonzero"/><path fill="rgb(100%, 100%, 100%)" d="M 106.984375 317.964844 C 106.617188 318.195312 106.527344 318.699219 106.800781 319.066406 C 107.03125 319.433594 107.535156 319.523438 107.902344 319.25 C 108.40625 318.882812 110.46875 317.828125 112.902344 318.011719 C 114.277344 318.101562 115.742188 318.652344 117.121094 319.9375 C 117.625 320.441406 118.035156 320.855469 118.402344 321.222656 C 121.382812 324.199219 122.714844 325.484375 126.152344 324.566406 C 126.566406 324.476562 126.839844 324.019531 126.703125 323.605469 C 126.613281 323.191406 126.152344 322.917969 125.738281 323.054688 C 123.171875 323.695312 122.070312 322.597656 119.550781 320.121094 C 119.136719 319.707031 118.679688 319.25 118.21875 318.789062 C 116.570312 317.183594 114.734375 316.542969 113.039062 316.40625 C 110.148438 316.222656 107.628906 317.507812 106.984375 317.964844 " fill-opacity="1" fill-rule="nonzero"/><path fill="rgb(100%, 100%, 100%)" d="M 156.648438 325.578125 C 156.648438 327.136719 157.472656 329.015625 158.574219 329.429688 C 159.902344 329.933594 160.132812 328.832031 160.867188 329.199219 C 162.058594 329.796875 160.957031 333.003906 157.519531 332.636719 C 155.363281 332.410156 154.125 330.804688 153.851562 328.96875 C 154.722656 328.007812 155.777344 326.539062 156.648438 325.578125 " fill-opacity="1" fill-rule="evenodd"/><path fill="rgb(100%, 100%, 100%)" d="M 136.976562 305.261719 C 136.5625 305.355469 136.242188 305.765625 136.332031 306.179688 C 136.425781 306.636719 136.835938 306.914062 137.25 306.867188 C 142.15625 305.996094 146.285156 306.453125 149.816406 308.199219 C 153.300781 309.984375 156.234375 313.105469 158.757812 317.460938 C 160.5 320.488281 162.5625 323.605469 165.085938 326.035156 C 167.652344 328.511719 170.726562 330.207031 174.300781 330.253906 C 176.136719 330.253906 177.742188 329.613281 178.933594 328.511719 C 181.226562 326.402344 181.636719 322.550781 179.4375 320.210938 C 178.382812 319.113281 176.777344 318.421875 175.035156 318.652344 C 172.789062 318.972656 171.503906 320.761719 172.144531 322.550781 C 172.695312 324.0625 174.761719 324.660156 176.136719 323.742188 C 177.191406 323.007812 177.695312 321.632812 177.328125 320.625 C 177.695312 320.761719 178.015625 321.035156 178.289062 321.3125 C 179.851562 323.007812 179.484375 325.851562 177.878906 327.367188 C 176.960938 328.191406 175.722656 328.648438 174.300781 328.648438 C 171.183594 328.601562 168.523438 327.089844 166.183594 324.890625 C 163.800781 322.597656 161.828125 319.570312 160.179688 316.679688 C 157.472656 312.003906 154.355469 308.703125 150.503906 306.777344 C 146.695312 304.851562 142.25 304.34375 136.976562 305.261719 " fill-opacity="1" fill-rule="nonzero"/><g clip-path="url(#id6)"><path fill="rgb(100%, 100%, 100%)" d="M 79.839844 334.472656 C 79.839844 332.777344 78.507812 331.445312 76.859375 331.445312 C 75.160156 331.445312 73.832031 332.777344 73.832031 334.472656 C 73.832031 336.125 75.160156 337.5 76.859375 337.5 C 78.507812 337.5 79.839844 336.125 79.839844 334.472656 " fill-opacity="1" fill-rule="evenodd"/></g><g clip-path="url(#id7)"><path fill="rgb(100%, 100%, 100%)" d="M 40.90625 295.542969 C 39.257812 295.542969 37.878906 296.871094 37.878906 298.523438 C 37.878906 300.21875 39.257812 301.546875 40.90625 301.546875 C 42.605469 301.546875 43.933594 300.21875 43.933594 298.523438 C 43.933594 296.871094 42.605469 295.542969 40.90625 295.542969 " fill-opacity="1" fill-rule="evenodd"/></g><g fill="rgb(100%, 100%, 100%)" fill-opacity="1"><g transform="translate(65.662954, 165.016776)"><g><path d="M 43.667969 -51.320312 C 54.355469 -53.566406 63.0625 -60.160156 63.0625 -72.035156 C 63.0625 -87.207031 47.230469 -93.144531 27.441406 -93.144531 L 4.617188 -93.144531 L 4.617188 0 L 35.886719 0 C 56.203125 -0.132812 72.035156 -4.617188 72.035156 -25.859375 C 72.035156 -44.59375 60.292969 -50.132812 43.667969 -51.320312 Z M 61.746094 -25.859375 C 61.746094 -2.109375 46.703125 -1.054688 34.832031 -1.054688 L 15.039062 -1.054688 L 15.039062 -73.488281 C 16.097656 -68.339844 17.679688 -63.855469 20.054688 -60.292969 C 23.878906 -54.222656 29.683594 -50.660156 35.886719 -50.660156 C 47.363281 -50.660156 61.746094 -49.476562 61.746094 -25.859375 Z M 52.773438 -72.035156 C 52.773438 -57.65625 44.726562 -51.71875 35.886719 -51.71875 C 29.949219 -51.71875 24.804688 -55.015625 21.109375 -60.953125 C 17.28125 -66.492188 15.039062 -74.410156 15.039062 -83.511719 L 15.039062 -92.222656 L 27.441406 -92.222656 C 40.109375 -92.222656 52.773438 -87.074219 52.773438 -72.035156 Z M 52.773438 -72.035156 "/></g></g></g><g fill="rgb(100%, 100%, 100%)" fill-opacity="1"><g transform="translate(129.200753, 222.959136)"><g><path d="M 77.3125 -9.894531 C 73.617188 -6.332031 69.132812 -3.035156 63.195312 -1.714844 C 41.164062 4.355469 21.902344 -16.492188 16.625 -36.675781 C 11.476562 -56.730469 17.414062 -84.4375 39.84375 -90.636719 C 67.8125 -98.421875 81.929688 -68.605469 82.589844 -67.023438 L 82.589844 -80.742188 C 82.589844 -80.742188 68.738281 -99.609375 39.710938 -91.5625 C 14.511719 -84.964844 -0.394531 -59.105469 6.332031 -34.039062 C 13.191406 -8.972656 38.921875 6.199219 63.460938 -1.054688 C 73.355469 -3.5625 81.667969 -8.972656 87.339844 -16.226562 L 87.339844 -43.800781 L 36.941406 -43.800781 L 36.941406 -33.644531 C 46.308594 -42.21875 61.214844 -42.746094 77.3125 -42.746094 Z M 77.3125 -9.894531 "/></g></g></g><g fill="rgb(100%, 100%, 100%)" fill-opacity="1"><g transform="translate(221.158394, 302.121367)"><g><path d="M 41.953125 -51.453125 C 53.433594 -52.90625 63.195312 -59.5 63.195312 -72.429688 C 63.195312 -87.472656 47.230469 -93.277344 27.835938 -93.277344 L 4.617188 -93.277344 L 4.617188 0 L 15.039062 0 L 15.039062 -74.015625 C 16.226562 -68.472656 17.8125 -64.25 20.1875 -60.425781 C 24.144531 -54.222656 29.816406 -50.925781 36.28125 -50.925781 C 66.097656 -50.925781 36.28125 0 84.304688 0 L 84.304688 -1.054688 C 75.464844 -1.054688 70.582031 -11.082031 65.570312 -22.558594 C 60.292969 -34.960938 55.675781 -48.289062 41.953125 -51.453125 Z M 52.773438 -72.429688 C 52.773438 -58.578125 45.648438 -52.378906 37.203125 -51.847656 L 36.28125 -51.847656 C 30.210938 -51.847656 24.804688 -55.675781 21.109375 -61.085938 C 17.414062 -66.890625 15.039062 -74.410156 15.039062 -84.039062 L 15.039062 -92.222656 L 27.835938 -92.222656 C 40.636719 -92.222656 52.773438 -87.472656 52.773438 -72.429688 Z M 52.773438 -72.429688 "/></g></g></g></svg>